<svg id="svg" version="1.1" width="1000" height="357" xmlns="http://www.w3.org/2000/svg" xmlns:xlink="http://www.w3.org/1999/xlink" style="display: block;"><g id="svgg"><path id="path0" d="M176.289 32.854 C 174.260 34.368,174.000 35.408,174.000 42.029 C 174.000 49.110,174.309 49.011,169.722 43.400 C 168.103 41.420,166.437 39.395,166.019 38.900 C 164.232 36.780,161.200 38.483,161.200 41.606 C 161.200 43.480,161.286 43.627,163.461 45.477 C 164.704 46.535,167.579 49.290,169.850 51.600 L 173.978 55.800 173.989 75.699 L 174.000 95.598 175.447 97.199 L 176.893 98.800 192.473 98.800 C 209.442 98.800,209.052 98.852,210.606 96.391 L 211.600 94.816 211.600 65.588 C 211.600 33.541,211.722 35.183,209.184 33.048 L 207.939 32.000 192.669 32.013 C 177.857 32.025,177.367 32.050,176.289 32.854 M204.674 38.070 L 205.600 38.939 205.600 58.594 C 205.600 77.821,205.582 78.268,204.784 79.125 C 203.874 80.102,182.521 80.521,180.791 79.595 C 179.372 78.836,178.215 61.200,179.584 61.200 C 179.795 61.200,183.238 64.456,187.235 68.435 C 193.763 74.934,194.564 75.607,195.115 75.056 C 195.835 74.336,195.309 73.538,190.593 68.200 C 189.039 66.440,186.525 63.470,185.008 61.600 C 183.491 59.730,181.576 57.424,180.752 56.475 L 179.255 54.750 179.327 47.007 C 179.399 39.410,179.418 39.244,180.370 38.232 L 181.339 37.200 192.544 37.200 C 203.497 37.200,203.769 37.219,204.674 38.070 M85.765 45.200 C 85.765 49.050,85.825 50.625,85.898 48.700 C 85.971 46.775,85.971 43.625,85.898 41.700 C 85.825 39.775,85.765 41.350,85.765 45.200 M85.767 84.800 C 85.767 89.090,85.826 90.845,85.898 88.700 C 85.970 86.555,85.970 83.045,85.898 80.900 C 85.826 78.755,85.767 80.510,85.767 84.800 M194.077 87.900 C 196.282 90.467,193.931 94.208,190.962 92.856 C 188.253 91.621,189.220 87.200,192.200 87.200 C 192.920 87.200,193.738 87.505,194.077 87.900 M183.520 88.480 C 184.638 89.598,183.674 92.400,182.171 92.400 C 181.389 92.400,180.000 90.949,180.000 90.131 C 180.000 88.489,182.402 87.362,183.520 88.480 M188.320 88.480 C 189.006 89.166,188.912 90.813,188.138 91.669 C 186.401 93.588,183.941 91.152,185.214 88.774 C 185.683 87.897,187.559 87.719,188.320 88.480 M199.120 88.480 C 199.806 89.166,199.712 90.813,198.938 91.669 C 197.201 93.588,194.741 91.152,196.014 88.774 C 196.483 87.897,198.359 87.719,199.120 88.480 M203.771 88.629 C 205.396 90.253,203.475 93.018,201.384 92.065 C 200.292 91.568,199.984 89.376,200.880 88.480 C 201.553 87.807,203.025 87.883,203.771 88.629 M134.114 123.000 C 134.117 124.100,134.195 124.503,134.287 123.895 C 134.379 123.286,134.377 122.386,134.282 121.895 C 134.187 121.403,134.111 121.900,134.114 123.000 M326.114 123.000 C 326.117 124.100,326.195 124.503,326.287 123.895 C 326.379 123.286,326.377 122.386,326.282 121.895 C 326.187 121.403,326.111 121.900,326.114 123.000 M134.093 131.600 C 134.093 132.370,134.175 132.685,134.276 132.300 C 134.376 131.915,134.376 131.285,134.276 130.900 C 134.175 130.515,134.093 130.830,134.093 131.600 M316.093 131.600 C 316.093 132.370,316.175 132.685,316.276 132.300 C 316.376 131.915,316.376 131.285,316.276 130.900 C 316.175 130.515,316.093 130.830,316.093 131.600 M325.952 131.913 C 325.821 132.707,325.879 133.081,326.101 132.859 C 326.303 132.657,326.401 132.067,326.319 131.546 C 326.193 130.745,326.137 130.802,325.952 131.913 " stroke="none" fill="#000000" fill-rule="evenodd"></path><path id="path1" d="M207.400 0.644 C 208.500 0.967,209.760 1.394,210.200 1.593 C 210.640 1.791,212.381 2.576,214.070 3.337 C 216.906 4.615,220.305 6.680,221.498 7.850 C 221.772 8.119,222.410 8.667,222.917 9.069 C 224.420 10.262,227.429 14.164,228.935 16.873 C 230.167 19.089,230.751 20.827,231.770 25.316 C 232.217 27.286,232.789 26.046,232.616 23.482 C 231.650 9.208,222.609 -0.000,209.600 0.042 L 205.400 0.056 207.400 0.644 M204.400 6.554 C 204.400 6.872,205.295 7.389,206.500 7.768 C 216.484 10.905,222.830 17.292,224.614 26.000 C 225.145 28.592,226.400 28.500,226.400 25.868 C 226.400 19.426,221.909 11.822,216.338 8.831 C 211.617 6.297,204.400 4.920,204.400 6.554 M203.675 13.891 C 203.765 14.360,204.463 14.729,205.841 15.035 C 213.166 16.661,220.000 23.839,220.000 29.906 C 220.000 31.821,220.999 30.550,221.120 28.480 C 221.447 22.909,217.787 16.810,212.560 14.213 C 209.932 12.908,203.440 12.673,203.675 13.891 M204.000 18.510 C 204.000 18.790,205.111 19.825,206.469 20.810 C 211.642 24.560,215.200 28.788,215.200 31.184 C 215.200 31.664,215.463 32.000,215.837 32.000 C 216.856 32.000,216.344 27.366,215.057 24.939 C 213.075 21.200,204.000 15.923,204.000 18.510 M202.184 24.427 C 202.039 24.661,201.983 24.893,202.060 24.943 C 202.137 24.992,202.895 25.385,203.745 25.816 C 206.056 26.988,210.685 31.425,211.262 33.020 C 212.091 35.314,212.955 34.815,212.685 32.198 C 212.195 27.456,208.868 24.000,204.793 24.000 C 203.503 24.000,202.329 24.192,202.184 24.427 M386.112 65.095 C 387.164 65.177,388.784 65.176,389.712 65.092 C 390.640 65.008,389.780 64.941,387.800 64.942 C 385.820 64.943,385.060 65.012,386.112 65.095 M270.105 66.287 C 270.714 66.379,271.614 66.377,272.105 66.282 C 272.597 66.187,272.100 66.111,271.000 66.114 C 269.900 66.117,269.497 66.195,270.105 66.287 M284.291 66.289 C 285.001 66.377,286.261 66.379,287.091 66.292 C 287.921 66.205,287.340 66.133,285.800 66.131 C 284.260 66.129,283.581 66.200,284.291 66.289 M142.383 73.300 C 144.041 75.066,144.400 75.384,144.400 75.083 C 144.400 75.019,143.545 74.164,142.500 73.183 L 140.600 71.400 142.383 73.300 M232.800 121.618 L 232.800 137.635 235.700 137.518 L 238.600 137.400 239.282 135.400 C 239.863 133.700,239.967 131.659,239.980 121.800 C 240.001 106.342,239.788 105.600,235.338 105.600 L 232.800 105.600 232.800 121.618 M284.011 106.773 C 283.664 107.610,283.593 109.696,283.761 114.073 C 284.032 121.104,284.032 120.057,283.758 129.328 C 283.506 137.863,283.389 137.600,287.449 137.600 L 290.400 137.600 290.400 130.800 C 290.400 126.533,290.549 124.000,290.800 124.000 C 291.029 124.000,291.200 122.800,291.200 121.200 L 291.200 118.400 289.344 118.400 C 286.836 118.400,286.429 117.775,286.413 113.900 C 286.401 111.062,286.468 110.800,287.200 110.800 C 287.911 110.800,288.000 111.067,288.000 113.200 L 288.000 115.600 289.200 115.600 L 290.400 115.600 290.400 111.233 C 290.400 105.441,290.490 105.600,287.206 105.600 C 284.587 105.600,284.481 105.639,284.011 106.773 M298.284 105.850 C 298.128 106.006,298.000 113.213,298.000 121.867 L 298.000 137.600 300.820 137.600 L 303.641 137.600 304.320 136.100 C 305.455 133.596,305.336 109.173,304.179 107.200 C 303.369 105.817,299.258 104.876,298.284 105.850 M331.067 105.867 C 330.920 106.013,330.800 113.213,330.800 121.867 L 330.800 137.600 332.200 137.600 L 333.600 137.600 333.600 121.600 L 333.600 105.600 332.467 105.600 C 331.843 105.600,331.213 105.720,331.067 105.867 M257.200 111.776 L 257.200 114.400 258.819 114.400 L 260.438 114.400 260.319 111.900 L 260.200 109.400 258.700 109.276 L 257.200 109.152 257.200 111.776 M236.557 111.433 C 237.044 112.702,236.828 131.412,236.320 131.920 C 235.295 132.945,235.200 132.065,235.200 121.600 C 235.200 112.635,235.295 110.800,235.757 110.800 C 236.064 110.800,236.424 111.085,236.557 111.433 M301.367 111.043 C 302.191 111.359,302.336 131.104,301.520 131.920 C 300.495 132.945,300.400 132.065,300.400 121.600 C 300.400 115.660,300.475 110.800,300.567 110.800 C 300.659 110.800,301.019 110.909,301.367 111.043 M380.000 113.800 C 380.000 115.267,379.826 116.400,379.600 116.400 C 379.378 116.400,379.200 117.467,379.200 118.800 C 379.200 120.133,379.378 121.200,379.600 121.200 C 379.850 121.200,380.015 123.860,380.040 128.300 C 380.089 137.044,380.160 137.361,382.116 137.524 L 383.600 137.648 383.600 135.224 C 383.600 133.875,383.423 132.800,383.200 132.800 C 382.952 132.800,382.800 130.600,382.800 127.000 C 382.800 123.400,382.952 121.200,383.200 121.200 C 383.422 121.200,383.600 120.133,383.600 118.800 C 383.600 117.467,383.422 116.400,383.200 116.400 C 382.974 116.400,382.800 115.267,382.800 113.800 L 382.800 111.200 381.400 111.200 L 380.000 111.200 380.000 113.800 M242.080 116.880 C 241.572 117.388,241.371 134.903,241.852 136.700 C 242.070 137.513,242.337 137.600,244.633 137.600 C 247.754 137.600,248.000 137.266,248.000 133.026 L 248.000 130.000 246.424 130.000 C 244.898 130.000,244.843 130.047,244.691 131.500 C 244.575 132.613,244.517 132.406,244.467 130.700 L 244.400 128.400 245.957 128.400 C 247.928 128.400,248.000 128.203,248.000 122.793 C 248.000 116.769,247.821 116.400,244.890 116.400 C 243.608 116.400,242.344 116.616,242.080 116.880 M250.014 117.174 C 249.142 118.803,249.512 125.220,250.602 127.368 C 251.814 129.758,251.815 129.600,250.600 129.600 C 249.619 129.600,249.600 129.659,249.605 132.700 C 249.614 137.591,249.654 137.657,252.535 137.518 L 254.967 137.400 255.314 135.800 C 256.239 131.533,255.214 126.954,252.705 124.142 C 252.203 123.579,251.998 122.890,252.109 122.142 C 252.280 121.001,252.280 121.001,252.340 122.268 C 252.402 123.583,254.115 124.470,255.244 123.773 C 255.726 123.475,255.537 118.491,254.990 117.100 C 254.572 116.038,250.590 116.097,250.014 117.174 M257.200 126.976 L 257.200 137.600 258.807 137.600 L 260.413 137.600 260.307 127.100 L 260.200 116.600 258.700 116.476 L 257.200 116.352 257.200 126.976 M262.712 117.106 C 262.342 117.551,262.163 120.067,262.066 126.193 C 261.907 136.309,262.192 137.600,264.580 137.600 C 265.970 137.600,266.000 137.634,266.000 139.200 C 266.000 140.080,265.820 140.800,265.600 140.800 C 265.380 140.800,265.200 140.350,265.200 139.800 C 265.200 138.898,265.041 138.800,263.578 138.800 L 261.956 138.800 262.078 140.700 L 262.200 142.600 265.300 142.717 L 268.400 142.834 268.400 129.647 L 268.400 116.460 265.812 116.475 C 263.984 116.485,263.073 116.671,262.712 117.106 M270.191 117.315 C 270.072 117.802,270.025 122.520,270.087 127.800 L 270.200 137.400 271.700 137.524 L 273.200 137.648 273.200 129.624 C 273.200 124.541,273.347 121.600,273.600 121.600 C 273.853 121.600,274.000 124.533,274.000 129.600 L 274.000 137.600 275.400 137.600 L 276.800 137.600 276.800 127.449 C 276.800 115.840,277.028 116.518,273.104 116.466 C 270.639 116.433,270.389 116.505,270.191 117.315 M307.214 117.174 C 306.771 118.002,306.629 135.120,307.052 136.700 C 307.270 137.513,307.537 137.600,309.833 137.600 C 312.954 137.600,313.200 137.266,313.200 133.026 L 313.200 130.000 311.624 130.000 C 310.098 130.000,310.043 130.047,309.891 131.500 C 309.775 132.613,309.717 132.406,309.667 130.700 L 309.600 128.400 311.153 128.400 C 313.088 128.400,313.187 128.103,313.195 122.274 C 313.202 116.695,313.041 116.400,310.000 116.400 C 308.064 116.400,307.552 116.542,307.214 117.174 M314.803 116.700 C 314.805 116.865,315.060 119.160,315.369 121.800 C 315.678 124.440,316.044 128.490,316.182 130.800 C 316.577 137.376,316.636 137.600,317.994 137.600 C 319.338 137.600,319.155 138.428,320.403 126.727 C 321.495 116.491,321.491 116.400,320.024 116.400 C 318.492 116.400,318.407 116.583,318.130 120.490 C 317.861 124.276,317.600 125.080,317.600 122.122 C 317.600 117.730,317.215 116.400,315.946 116.400 C 315.316 116.400,314.802 116.535,314.803 116.700 M323.214 117.174 C 322.964 117.642,322.800 121.525,322.800 127.000 C 322.800 137.740,322.758 137.600,326.000 137.600 C 328.936 137.600,329.200 137.220,329.200 133.002 L 329.200 129.952 327.700 130.076 C 326.279 130.193,326.207 130.266,326.326 131.460 C 326.395 132.154,326.260 132.839,326.026 132.984 C 325.743 133.159,325.600 132.436,325.600 130.824 L 325.600 128.400 327.157 128.400 C 329.138 128.400,329.200 128.223,329.200 122.541 C 329.200 116.675,329.057 116.400,326.000 116.400 C 324.064 116.400,323.552 116.542,323.214 117.174 M335.780 117.787 C 335.059 119.513,334.946 134.353,335.639 136.340 C 336.158 137.828,341.228 138.347,341.757 136.967 C 342.072 136.146,342.064 118.479,341.748 117.300 C 341.289 115.588,336.536 115.976,335.780 117.787 M343.600 129.619 L 343.600 142.800 345.000 142.800 L 346.400 142.800 346.400 140.225 L 346.400 137.651 347.700 137.525 C 349.674 137.335,349.951 135.999,349.977 126.519 C 350.006 116.375,350.036 116.458,346.348 116.447 L 343.600 116.438 343.600 129.619 M351.822 116.712 C 351.700 116.834,351.600 121.583,351.600 127.267 L 351.600 137.600 353.000 137.600 L 354.400 137.600 354.400 129.400 C 354.400 124.200,354.546 121.200,354.800 121.200 C 355.054 121.200,355.200 124.200,355.200 129.400 L 355.200 137.600 356.600 137.600 L 358.000 137.600 358.000 129.400 C 358.000 124.200,358.146 121.200,358.400 121.200 C 358.654 121.200,358.800 124.208,358.800 129.424 L 358.800 137.648 360.300 137.524 L 361.800 137.400 361.908 128.471 C 361.970 123.284,361.844 118.908,361.607 118.027 L 361.199 116.510 356.621 116.500 C 354.103 116.494,351.944 116.590,351.822 116.712 M363.639 117.660 C 363.157 119.042,363.088 134.708,363.557 136.400 C 363.811 137.320,364.043 137.409,366.466 137.517 C 369.560 137.655,369.586 137.617,369.595 132.900 L 369.600 130.000 368.224 130.000 C 366.929 130.000,366.839 130.088,366.691 131.500 C 366.575 132.613,366.517 132.406,366.467 130.700 L 366.400 128.400 367.757 128.400 C 369.502 128.400,369.600 128.100,369.600 122.793 C 369.600 116.752,369.427 116.400,366.449 116.400 C 364.150 116.400,364.065 116.438,363.639 117.660 M371.600 127.015 L 371.600 137.600 373.000 137.600 L 374.400 137.600 374.400 129.600 C 374.400 124.533,374.547 121.600,374.800 121.600 C 375.053 121.600,375.200 124.533,375.200 129.600 L 375.200 137.600 376.600 137.600 L 378.000 137.600 378.000 127.449 C 378.000 115.825,378.220 116.479,374.300 116.450 L 371.600 116.430 371.600 127.015 M244.687 123.895 C 244.595 124.503,244.517 124.100,244.514 123.000 C 244.511 121.900,244.587 121.403,244.682 121.895 C 244.777 122.386,244.779 123.286,244.687 123.895 M309.887 123.895 C 309.795 124.503,309.717 124.100,309.714 123.000 C 309.711 121.900,309.787 121.403,309.882 121.895 C 309.977 122.386,309.979 123.286,309.887 123.895 M326.400 123.000 C 326.400 123.990,326.220 124.800,326.000 124.800 C 325.780 124.800,325.600 123.990,325.600 123.000 C 325.600 122.010,325.780 121.200,326.000 121.200 C 326.220 121.200,326.400 122.010,326.400 123.000 M339.200 127.000 C 339.200 130.600,339.048 132.800,338.800 132.800 C 338.552 132.800,338.400 130.600,338.400 127.000 C 338.400 123.400,338.552 121.200,338.800 121.200 C 339.048 121.200,339.200 123.400,339.200 127.000 M347.200 126.776 C 347.200 130.063,347.036 132.454,346.800 132.600 C 346.540 132.760,346.400 130.804,346.400 127.024 C 346.400 123.408,346.552 121.200,346.800 121.200 C 347.048 121.200,347.200 123.325,347.200 126.776 M366.687 123.895 C 366.595 124.503,366.517 124.100,366.514 123.000 C 366.511 121.900,366.587 121.403,366.682 121.895 C 366.777 122.386,366.779 123.286,366.687 123.895 M266.000 127.424 C 266.000 130.741,265.847 132.800,265.600 132.800 C 265.352 132.800,265.200 130.659,265.200 127.176 C 265.200 123.529,265.341 121.640,265.600 121.800 C 265.835 121.945,266.000 124.271,266.000 127.424 M288.000 128.200 C 288.000 132.133,287.949 132.400,287.200 132.400 C 286.385 132.400,285.957 126.421,286.643 124.633 C 287.423 122.599,288.000 124.116,288.000 128.200 M252.283 132.095 C 252.187 132.593,252.105 132.280,252.101 131.400 C 252.096 130.520,252.175 130.113,252.275 130.495 C 252.375 130.878,252.379 131.598,252.283 132.095 " stroke="none" fill="#d32e18" fill-rule="evenodd"></path><path id="path2" d="M130.600 33.582 C 130.160 33.764,129.350 34.396,128.800 34.988 L 127.800 36.063 127.680 45.920 C 127.522 58.820,126.578 56.821,138.600 69.059 L 148.365 79.000 148.383 85.100 L 148.400 91.200 143.200 91.200 L 138.000 91.200 138.000 84.400 L 138.000 77.600 132.800 77.600 L 127.600 77.600 127.600 86.840 C 127.600 100.842,126.615 100.000,142.988 100.000 C 159.470 100.000,158.372 101.006,158.367 85.913 C 158.363 73.217,159.282 75.138,147.500 63.186 L 138.000 53.548 138.000 48.174 L 138.000 42.800 143.190 42.800 L 148.379 42.800 148.490 48.900 L 148.600 55.000 153.168 55.114 C 158.838 55.255,158.386 56.080,158.394 45.559 C 158.403 32.599,159.158 33.204,143.000 33.231 C 136.620 33.242,131.040 33.400,130.600 33.582 M222.400 66.788 L 222.400 100.400 226.900 100.394 C 229.375 100.391,231.622 100.247,231.893 100.074 C 232.279 99.830,232.366 92.527,232.293 66.581 L 232.200 33.400 227.300 33.288 L 222.400 33.175 222.400 66.788 M293.600 46.412 L 293.600 52.025 298.500 51.912 L 303.400 51.800 303.511 46.300 L 303.623 40.800 298.611 40.800 L 293.600 40.800 293.600 46.412 M272.800 51.178 L 272.800 56.756 270.900 56.878 L 269.000 57.000 268.887 61.500 L 268.774 66.000 270.787 66.000 L 272.800 66.000 272.800 81.013 C 272.800 101.075,272.246 100.000,282.580 100.000 L 288.800 100.000 288.800 95.600 L 288.800 91.200 286.000 91.200 L 283.200 91.200 283.200 78.600 L 283.200 66.000 286.013 66.000 L 288.826 66.000 288.713 61.500 L 288.600 57.000 285.900 56.882 L 283.200 56.763 283.200 51.182 L 283.200 45.600 278.000 45.600 L 272.800 45.600 272.800 51.178 M103.578 57.287 C 103.150 57.445,102.800 57.466,102.800 57.333 C 102.800 56.806,101.030 59.381,100.855 60.163 C 100.595 61.326,100.579 94.037,100.838 94.904 C 100.953 95.291,101.262 95.822,101.524 96.084 C 101.786 96.346,102.000 96.775,102.000 97.037 C 102.000 97.884,103.128 98.000,111.333 97.994 C 122.309 97.986,122.448 97.892,122.731 90.252 C 122.915 85.266,122.886 85.216,119.780 85.206 C 117.024 85.198,116.800 85.535,116.800 89.680 L 116.800 93.200 111.600 93.200 L 106.400 93.200 106.400 86.000 L 106.400 78.800 113.579 78.800 C 120.601 78.800,120.782 78.779,121.793 77.841 L 122.828 76.882 122.777 68.941 C 122.723 60.368,122.381 58.553,120.647 57.625 C 119.630 57.081,104.925 56.790,103.578 57.287 M237.778 57.314 C 237.134 58.990,237.815 97.422,238.506 98.438 C 239.991 100.624,244.145 101.010,251.000 99.600 C 253.138 99.160,254.937 98.800,254.997 98.800 C 255.058 98.800,255.202 99.166,255.319 99.613 C 255.520 100.382,255.794 100.419,260.466 100.313 L 265.400 100.200 265.400 78.600 L 265.400 57.000 260.400 57.000 L 255.400 57.000 255.296 74.100 L 255.191 91.200 251.600 91.200 L 248.009 91.200 247.904 74.100 L 247.800 57.000 242.892 56.888 C 239.068 56.800,237.939 56.894,237.778 57.314 M294.100 57.065 C 293.709 57.223,293.600 61.914,293.600 78.633 L 293.600 100.000 298.600 100.000 L 303.600 100.000 303.600 78.880 C 303.600 62.987,303.481 57.641,303.120 57.280 C 302.644 56.804,295.186 56.627,294.100 57.065 M311.600 57.490 C 308.804 58.907,308.801 58.930,308.801 78.292 C 308.800 102.080,307.439 100.000,322.999 100.000 L 333.638 100.000 334.610 98.951 C 336.027 97.422,336.049 97.069,335.919 77.309 L 335.800 59.218 334.692 58.109 L 333.583 57.000 323.292 56.890 C 314.094 56.793,312.851 56.856,311.600 57.490 M342.279 57.055 C 342.125 57.208,342.000 66.933,342.000 78.667 L 342.000 100.000 347.000 100.000 L 352.000 100.000 352.000 83.450 L 352.000 66.900 353.250 66.650 C 353.938 66.513,355.648 66.400,357.050 66.400 L 359.600 66.400 359.600 83.200 L 359.600 100.000 364.600 100.000 L 369.600 100.000 369.600 80.180 C 369.600 58.437,369.623 58.653,367.213 57.407 C 365.420 56.480,356.266 57.249,352.669 58.629 C 352.252 58.789,352.023 58.572,351.932 57.931 C 351.799 56.994,343.126 56.207,342.279 57.055 M378.400 57.061 C 375.147 58.132,374.800 59.137,374.801 67.460 C 374.803 75.281,375.040 75.989,378.275 77.836 C 379.334 78.441,382.180 80.217,384.600 81.782 C 387.020 83.348,389.495 84.878,390.100 85.182 C 391.168 85.719,391.200 85.833,391.200 89.068 L 391.200 92.400 387.800 92.400 L 384.400 92.400 384.400 88.800 L 384.400 85.200 379.600 85.200 L 374.800 85.200 374.801 90.900 C 374.804 100.115,374.636 100.000,388.052 100.000 C 401.115 100.000,399.986 101.015,399.994 89.260 L 400.000 80.321 398.857 79.260 C 398.228 78.677,396.743 77.680,395.557 77.045 C 394.370 76.409,391.641 74.737,389.492 73.329 C 387.342 71.921,385.317 70.666,384.992 70.542 C 384.549 70.371,384.400 69.622,384.400 67.557 L 384.400 64.800 387.800 64.800 L 391.200 64.800 391.200 68.153 C 391.200 72.110,391.030 71.986,396.500 71.995 L 400.000 72.000 400.000 65.633 C 400.000 58.473,399.946 58.199,398.371 57.385 C 397.262 56.812,380.007 56.531,378.400 57.061 M116.800 68.000 L 116.800 74.000 111.600 74.000 L 106.400 74.000 106.400 68.000 L 106.400 62.000 111.600 62.000 L 116.800 62.000 116.800 68.000 M326.400 78.800 L 326.400 91.600 322.600 91.600 L 318.800 91.600 318.800 78.800 L 318.800 66.000 322.600 66.000 L 326.400 66.000 326.400 78.800 M190.223 88.489 C 189.373 89.702,189.441 91.041,190.400 92.000 C 192.714 94.314,196.071 91.193,194.177 88.489 C 193.835 88.000,193.351 87.600,193.102 87.600 C 192.853 87.600,193.043 87.967,193.525 88.416 C 194.591 89.409,194.654 90.847,193.669 91.738 C 191.463 93.734,188.823 90.704,190.870 88.526 C 191.348 88.017,191.538 87.600,191.292 87.600 C 191.047 87.600,190.565 88.000,190.223 88.489 M180.880 88.880 C 179.817 89.943,180.589 92.000,182.051 92.000 C 182.935 92.000,184.002 90.941,183.994 90.071 C 183.990 89.612,183.829 89.716,183.484 90.400 C 182.775 91.807,181.304 91.953,180.976 90.649 C 180.628 89.260,181.095 88.694,182.426 88.889 C 183.049 88.981,183.467 88.908,183.355 88.728 C 183.050 88.234,181.426 88.334,180.880 88.880 M185.198 89.203 C 184.839 89.875,184.877 90.258,185.381 91.027 C 186.556 92.820,188.581 91.925,188.329 89.724 C 188.157 88.223,185.922 87.851,185.198 89.203 M196.267 88.667 C 195.825 89.109,195.967 91.007,196.480 91.520 C 197.788 92.828,200.103 90.887,199.214 89.227 C 198.783 88.422,196.874 88.059,196.267 88.667 M200.792 89.215 C 200.187 90.345,200.665 91.551,201.832 91.844 C 203.494 92.261,204.457 90.856,203.757 89.033 C 203.396 88.091,201.326 88.218,200.792 89.215 M187.800 90.195 C 187.800 91.613,186.551 92.094,185.742 90.988 C 185.030 90.014,185.761 88.710,186.927 88.876 C 187.602 88.972,187.800 89.271,187.800 90.195 M198.770 89.545 C 199.291 90.517,198.435 91.742,197.378 91.539 C 196.571 91.383,196.179 90.354,196.554 89.377 C 196.869 88.555,198.299 88.663,198.770 89.545 M203.400 90.200 C 203.400 91.199,203.240 91.400,202.444 91.400 C 201.163 91.400,200.461 90.290,201.188 89.414 C 202.089 88.329,203.400 88.795,203.400 90.200 M12.494 106.282 C 12.332 106.677,12.200 109.430,12.200 112.400 C 12.200 118.220,12.222 118.306,15.253 124.571 C 16.597 127.349,16.950 132.400,15.800 132.400 C 15.323 132.400,15.200 131.820,15.200 129.576 L 15.200 126.752 13.700 126.876 L 12.200 127.000 12.086 130.889 C 12.023 133.028,12.124 135.368,12.311 136.089 L 12.651 137.400 15.625 137.400 L 18.600 137.400 18.711 131.019 L 18.821 124.638 17.140 120.419 C 15.226 115.614,14.533 110.800,15.755 110.800 C 16.282 110.800,16.400 111.275,16.400 113.400 L 16.400 116.000 17.612 116.000 L 18.824 116.000 18.712 110.900 L 18.600 105.800 15.694 105.682 C 13.209 105.582,12.746 105.669,12.494 106.282 M29.990 106.626 C 29.776 107.190,29.600 109.620,29.600 112.026 C 29.600 114.675,29.442 116.400,29.200 116.400 C 28.978 116.400,28.800 117.467,28.800 118.800 C 28.800 120.133,28.978 121.200,29.200 121.200 C 29.454 121.200,29.600 124.208,29.600 129.424 L 29.600 137.648 31.100 137.524 L 32.600 137.400 32.708 129.300 C 32.774 124.355,32.969 121.200,33.208 121.200 C 33.424 121.200,33.600 120.120,33.600 118.800 C 33.600 117.467,33.422 116.400,33.200 116.400 C 32.505 116.400,32.697 110.525,33.400 110.255 C 33.833 110.089,34.000 109.410,34.000 107.813 L 34.000 105.600 32.190 105.600 C 30.615 105.600,30.330 105.733,29.990 106.626 M149.043 106.233 C 148.909 106.581,148.800 113.496,148.800 121.600 C 148.800 137.476,148.811 137.600,150.243 137.600 C 151.173 137.600,151.200 137.509,151.200 134.400 C 151.200 132.640,151.356 131.200,151.546 131.200 C 151.736 131.200,151.871 131.875,151.846 132.700 C 151.807 133.961,151.941 134.220,152.686 134.326 C 153.605 134.457,153.798 134.067,154.130 131.400 C 154.213 130.740,154.307 131.876,154.340 133.925 L 154.400 137.651 155.612 137.525 L 156.824 137.400 156.912 121.718 L 157.000 106.037 156.042 105.796 C 154.706 105.461,154.425 105.896,154.214 108.621 C 154.113 109.929,154.001 111.000,153.964 111.000 C 153.837 111.000,153.634 112.618,153.417 115.368 C 153.041 120.117,152.770 119.465,151.768 111.400 C 151.413 108.540,151.039 106.065,150.938 105.900 C 150.603 105.357,149.290 105.587,149.043 106.233 M167.400 105.832 C 167.141 105.941,167.031 111.527,167.089 121.700 L 167.178 137.400 169.679 137.521 C 173.280 137.696,173.201 137.923,173.194 127.424 C 173.187 117.395,173.006 116.550,170.881 116.676 L 169.600 116.751 169.600 111.418 C 169.600 105.680,169.338 105.015,167.400 105.832 M180.600 105.832 C 180.341 105.941,180.231 111.528,180.288 121.700 L 180.376 137.400 181.444 137.532 C 183.146 137.742,183.187 137.365,183.194 121.733 C 183.201 104.682,183.209 104.733,180.600 105.832 M199.949 105.900 C 199.800 106.776,199.678 108.212,199.415 112.200 C 199.255 114.620,199.059 117.140,198.978 117.800 C 198.897 118.460,198.723 120.620,198.590 122.600 C 198.458 124.580,198.282 126.650,198.199 127.200 C 198.115 127.750,197.929 130.180,197.785 132.600 C 197.641 135.020,197.440 137.135,197.338 137.300 C 197.236 137.465,197.693 137.600,198.353 137.600 C 199.906 137.600,200.172 136.988,200.377 132.947 C 200.437 131.767,201.840 132.138,201.932 133.359 C 202.201 136.918,202.507 137.600,203.840 137.600 L 204.833 137.600 204.599 133.900 C 204.470 131.865,204.284 129.120,204.186 127.800 C 204.088 126.480,203.913 124.050,203.796 122.400 C 203.679 120.750,203.505 118.500,203.409 117.400 C 203.313 116.300,203.135 113.805,203.014 111.855 C 202.762 107.821,202.467 106.328,201.838 105.906 C 201.264 105.521,200.014 105.517,199.949 105.900 M175.467 109.467 C 175.320 109.613,175.200 110.783,175.200 112.067 L 175.200 114.400 176.600 114.400 L 178.000 114.400 178.000 111.800 C 178.000 109.240,176.799 108.134,175.467 109.467 M35.200 113.776 C 35.200 115.193,35.020 116.464,34.800 116.600 C 34.580 116.736,34.400 117.726,34.400 118.800 C 34.400 119.874,34.580 120.864,34.800 121.000 C 35.040 121.148,35.216 124.082,35.240 128.324 C 35.290 137.200,35.330 137.363,37.516 137.523 L 39.200 137.646 39.200 135.410 C 39.200 133.792,39.034 133.111,38.600 132.945 C 38.105 132.755,38.000 131.706,38.000 126.957 C 38.000 122.106,38.094 121.200,38.600 121.200 C 39.067 121.200,39.200 120.667,39.200 118.800 C 39.200 116.933,39.067 116.400,38.600 116.400 C 38.128 116.400,38.000 115.844,38.000 113.800 L 38.000 111.200 36.600 111.200 L 35.200 111.200 35.200 113.776 M21.190 117.426 C 20.682 118.762,20.682 135.238,21.190 136.574 C 21.554 137.531,21.756 137.600,24.200 137.600 C 27.639 137.600,27.603 137.715,27.587 126.674 C 27.572 116.180,27.648 116.400,24.046 116.400 C 21.767 116.400,21.551 116.478,21.190 117.426 M40.557 118.273 C 40.688 119.333,41.070 123.530,41.405 127.600 C 42.264 138.043,42.158 137.600,43.797 137.600 C 45.154 137.600,45.159 137.593,45.305 135.500 L 45.452 133.400 45.526 135.500 C 45.600 137.597,45.602 137.600,46.927 137.600 L 48.254 137.600 48.941 128.700 C 49.319 123.805,49.695 119.245,49.778 118.566 C 50.060 116.251,47.727 115.380,47.192 117.600 L 46.950 118.600 46.668 117.500 C 46.439 116.609,46.158 116.400,45.192 116.400 L 44.000 116.400 43.931 119.100 L 43.862 121.800 43.631 119.200 L 43.400 116.600 41.859 116.473 L 40.318 116.347 40.557 118.273 M51.621 117.900 C 51.061 119.917,51.090 122.530,51.680 123.120 C 52.647 124.087,53.952 123.686,54.352 122.300 L 54.728 121.000 54.764 122.700 C 54.800 124.385,54.788 124.400,53.390 124.400 C 51.494 124.400,51.200 125.286,51.200 131.000 C 51.200 137.423,51.296 137.600,54.790 137.600 L 57.600 137.600 57.600 128.026 C 57.600 116.343,57.616 116.400,54.429 116.400 L 52.038 116.400 51.621 117.900 M59.200 126.995 L 59.200 137.600 60.800 137.600 L 62.400 137.600 62.477 129.300 C 62.519 124.735,62.618 122.136,62.697 123.524 L 62.839 126.048 64.120 125.924 L 65.400 125.800 65.515 122.800 C 65.578 121.150,65.480 119.080,65.298 118.200 L 64.966 116.600 62.083 116.495 L 59.200 116.389 59.200 126.995 M67.214 117.174 C 66.964 117.642,66.800 121.525,66.800 127.000 C 66.800 137.740,66.758 137.600,70.000 137.600 C 72.936 137.600,73.200 137.220,73.200 133.002 L 73.200 129.952 71.700 130.076 C 70.332 130.189,70.178 130.324,69.953 131.600 C 69.746 132.770,69.697 132.621,69.653 130.700 L 69.600 128.400 71.157 128.400 C 73.129 128.400,73.200 128.204,73.200 122.786 C 73.200 116.914,72.939 116.400,69.950 116.400 C 68.064 116.400,67.550 116.545,67.214 117.174 M159.722 116.657 C 159.460 116.764,159.344 117.110,159.465 117.426 C 159.586 117.742,159.531 118.000,159.343 118.000 C 158.741 118.000,159.067 136.869,159.676 137.255 C 161.611 138.483,165.719 137.257,165.390 135.550 C 165.134 134.221,165.113 118.464,165.367 118.053 C 165.493 117.850,165.315 117.576,164.972 117.445 C 164.630 117.313,164.461 117.024,164.598 116.803 C 164.851 116.394,160.676 116.270,159.722 116.657 M175.400 126.989 L 175.400 137.600 176.707 137.600 L 178.013 137.600 177.907 127.126 L 177.800 116.652 176.600 116.515 L 175.400 116.378 175.400 126.989 M186.160 116.706 C 184.985 117.491,184.800 118.939,184.800 127.374 C 184.800 132.858,184.946 136.000,185.200 136.000 C 185.420 136.000,185.579 136.135,185.553 136.300 C 185.374 137.429,185.720 137.600,188.175 137.600 L 190.751 137.600 191.004 135.900 C 191.502 132.547,191.119 130.217,190.045 130.065 C 188.930 129.907,188.415 130.555,188.406 132.124 C 188.403 132.770,188.230 133.142,188.000 133.000 C 187.780 132.864,187.600 131.773,187.600 130.576 L 187.600 128.400 189.010 128.400 C 190.880 128.400,191.200 127.502,191.200 122.249 C 191.200 117.068,189.091 114.749,186.160 116.706 M206.800 129.600 L 206.800 142.800 208.200 142.800 L 209.600 142.800 209.600 140.200 C 209.600 137.772,209.660 137.600,210.500 137.594 C 211.538 137.587,212.577 137.017,212.650 136.415 C 212.678 136.187,212.729 135.865,212.765 135.700 C 213.041 134.428,212.737 118.286,212.421 117.456 C 211.996 116.337,210.555 116.005,209.725 116.835 C 209.412 117.148,209.215 117.148,209.022 116.835 C 208.874 116.596,208.313 116.400,207.776 116.400 L 206.800 116.400 206.800 129.600 M215.111 129.662 L 215.221 142.800 216.411 142.800 L 217.600 142.800 217.600 140.200 C 217.600 137.674,217.629 137.600,218.629 137.600 C 220.878 137.600,220.992 137.109,221.087 127.029 C 221.189 116.256,221.320 116.663,217.728 116.584 L 215.000 116.524 215.111 129.662 M24.800 127.000 C 24.800 130.600,24.648 132.800,24.400 132.800 C 24.152 132.800,24.000 130.600,24.000 127.000 C 24.000 123.400,24.152 121.200,24.400 121.200 C 24.648 121.200,24.800 123.400,24.800 127.000 M69.887 123.895 C 69.795 124.503,69.717 124.100,69.714 123.000 C 69.711 121.900,69.787 121.403,69.882 121.895 C 69.977 122.386,69.979 123.286,69.887 123.895 M162.800 127.000 C 162.800 130.600,162.648 132.800,162.400 132.800 C 162.152 132.800,162.000 130.600,162.000 127.000 C 162.000 123.400,162.152 121.200,162.400 121.200 C 162.648 121.200,162.800 123.400,162.800 127.000 M170.400 126.600 C 170.400 129.570,170.413 132.131,170.430 132.290 C 170.447 132.450,170.267 132.644,170.030 132.723 C 169.736 132.821,169.600 131.016,169.600 127.033 C 169.600 123.411,169.752 121.200,170.000 121.200 C 170.247 121.200,170.400 123.267,170.400 126.600 M188.400 123.224 C 188.400 124.471,188.247 125.152,188.000 125.000 C 187.780 124.864,187.600 123.953,187.600 122.976 C 187.600 121.999,187.780 121.200,188.000 121.200 C 188.220 121.200,188.400 122.111,188.400 123.224 M210.400 126.751 C 210.400 130.703,210.256 132.422,209.900 132.718 C 209.503 133.048,209.425 131.906,209.520 127.167 C 209.674 119.530,210.400 119.187,210.400 126.751 M218.400 127.224 C 218.400 131.137,218.260 133.161,218.000 133.000 C 217.763 132.854,217.600 130.396,217.600 126.976 C 217.600 123.392,217.752 121.200,218.000 121.200 C 218.249 121.200,218.400 123.475,218.400 127.224 M201.402 124.777 C 201.390 125.864,201.249 126.884,201.090 127.043 C 200.930 127.203,200.800 126.313,200.800 125.067 C 200.800 123.820,200.941 122.800,201.112 122.800 C 201.284 122.800,201.415 123.690,201.402 124.777 M54.689 131.700 C 54.601 132.415,54.528 131.830,54.528 130.400 C 54.528 128.970,54.601 128.385,54.689 129.100 C 54.778 129.815,54.778 130.985,54.689 131.700 M74.882 134.700 L 75.000 137.400 76.500 137.524 L 78.000 137.648 78.000 134.824 L 78.000 132.000 76.382 132.000 L 74.763 132.000 74.882 134.700 M222.800 134.800 L 222.800 137.600 224.200 137.600 L 225.600 137.600 225.600 134.800 L 225.600 132.000 224.200 132.000 L 222.800 132.000 222.800 134.800 " stroke="none" fill="#ff9f23" fill-rule="evenodd"></path><path id="path3" d="M108.100 57.098 C 110.025 57.171,113.175 57.171,115.100 57.098 C 117.025 57.025,115.450 56.965,111.600 56.965 C 107.750 56.965,106.175 57.025,108.100 57.098 M108.900 62.297 C 110.385 62.374,112.815 62.374,114.300 62.297 C 115.785 62.220,114.570 62.157,111.600 62.157 C 108.630 62.157,107.415 62.220,108.900 62.297 M113.600 78.800 L 106.200 79.027 113.476 79.114 C 117.991 79.167,120.847 79.048,121.000 78.800 C 121.136 78.580,121.192 78.439,121.124 78.486 C 121.056 78.534,117.670 78.675,113.600 78.800 M190.262 87.931 C 189.898 88.334,189.600 88.824,189.600 89.020 C 189.600 89.217,189.880 88.978,190.223 88.489 C 190.658 87.868,191.254 87.600,192.200 87.600 C 193.146 87.600,193.742 87.868,194.177 88.489 C 194.520 88.978,194.800 89.186,194.800 88.951 C 194.800 87.383,191.442 86.628,190.262 87.931 M180.768 88.700 C 180.318 89.296,180.322 89.325,180.799 88.900 C 181.609 88.178,183.094 88.286,183.568 89.100 C 183.792 89.485,183.981 89.611,183.988 89.380 C 184.027 88.031,181.654 87.529,180.768 88.700 M185.445 88.328 C 185.333 88.508,185.773 88.577,186.421 88.482 C 187.070 88.387,187.600 88.240,187.600 88.155 C 187.600 87.850,185.643 88.007,185.445 88.328 M196.800 88.155 C 196.800 88.240,197.330 88.387,197.979 88.482 C 198.627 88.577,199.067 88.508,198.955 88.328 C 198.757 88.007,196.800 87.850,196.800 88.155 M200.880 88.480 C 200.616 88.744,200.400 89.138,200.400 89.356 C 200.400 89.575,200.625 89.461,200.900 89.105 C 201.175 88.748,201.850 88.378,202.400 88.283 L 203.400 88.109 202.380 88.054 C 201.819 88.025,201.144 88.216,200.880 88.480 M188.454 90.020 C 188.425 90.581,188.265 91.212,188.100 91.423 C 187.935 91.633,188.041 91.602,188.335 91.354 C 188.629 91.106,188.788 90.474,188.689 89.951 C 188.511 89.010,188.508 89.010,188.454 90.020 M195.654 90.051 C 195.624 90.630,195.914 91.348,196.300 91.651 C 196.909 92.129,196.940 92.122,196.538 91.600 C 196.284 91.270,195.994 90.550,195.893 90.000 L 195.709 89.000 195.654 90.051 M184.800 90.649 C 184.800 91.329,186.302 92.503,186.877 92.273 C 187.226 92.133,187.175 92.053,186.723 92.032 C 186.350 92.014,185.765 91.600,185.423 91.111 C 185.080 90.622,184.800 90.414,184.800 90.649 M201.854 105.906 C 202.103 106.068,202.397 106.560,202.507 107.000 C 202.661 107.613,202.718 107.543,202.754 106.700 C 202.787 105.899,202.610 105.602,202.100 105.606 C 201.656 105.610,201.566 105.720,201.854 105.906 M156.982 121.600 C 156.982 130.070,157.035 133.535,157.099 129.300 C 157.164 125.065,157.164 118.135,157.099 113.900 C 157.035 109.665,156.982 113.130,156.982 121.600 M166.982 121.600 C 166.982 130.070,167.035 133.535,167.099 129.300 C 167.164 125.065,167.164 118.135,167.099 113.900 C 167.035 109.665,166.982 113.130,166.982 121.600 M180.182 121.600 C 180.182 130.070,180.235 133.535,180.299 129.300 C 180.364 125.065,180.364 118.135,180.299 113.900 C 180.235 109.665,180.182 113.130,180.182 121.600 M212.268 117.106 C 212.394 117.605,212.655 118.110,212.848 118.230 C 213.396 118.568,213.262 117.836,212.620 116.976 C 212.060 116.227,212.048 116.232,212.268 117.106 M214.982 116.903 C 214.875 117.180,214.836 123.165,214.895 130.203 L 215.001 143.000 215.200 129.700 C 215.310 122.385,215.349 116.400,215.287 116.400 C 215.226 116.400,215.088 116.627,214.982 116.903 M206.579 129.800 C 206.579 137.060,206.633 140.086,206.699 136.525 C 206.765 132.964,206.766 127.024,206.699 123.325 C 206.633 119.626,206.579 122.540,206.579 129.800 M175.373 127.000 C 175.373 132.500,175.430 134.805,175.499 132.123 C 175.568 129.441,175.568 124.941,175.499 122.123 C 175.430 119.305,175.374 121.500,175.373 127.000 M158.969 126.600 C 158.970 131.220,159.028 133.055,159.099 130.678 C 159.170 128.301,159.169 124.521,159.098 122.278 C 159.027 120.035,158.969 121.980,158.969 126.600 M212.969 126.800 C 212.969 131.310,213.027 133.155,213.098 130.900 C 213.170 128.645,213.170 124.955,213.098 122.700 C 213.027 120.445,212.969 122.290,212.969 126.800 M165.368 127.000 C 165.368 131.400,165.426 133.255,165.498 131.121 C 165.570 128.988,165.570 125.388,165.499 123.121 C 165.427 120.855,165.368 122.600,165.368 127.000 M188.120 123.200 C 188.120 124.410,188.195 124.905,188.287 124.300 C 188.378 123.695,188.378 122.705,188.287 122.100 C 188.195 121.495,188.120 121.990,188.120 123.200 M188.267 130.267 C 188.120 130.413,188.021 131.178,188.046 131.967 L 188.092 133.400 188.404 131.800 C 188.731 130.119,188.705 129.828,188.267 130.267 M204.493 133.200 C 204.493 133.970,204.575 134.285,204.676 133.900 C 204.776 133.515,204.776 132.885,204.676 132.500 C 204.575 132.115,204.493 132.430,204.493 133.200 " stroke="none" fill="#7f7f00" fill-rule="evenodd"></path><path id="path4" d="M66.990 65.200 C 66.990 81.150,67.039 87.675,67.100 79.700 C 67.160 71.725,67.160 58.675,67.100 50.700 C 67.039 42.725,66.990 49.250,66.990 65.200 M17.765 45.200 C 17.765 49.050,17.825 50.625,17.898 48.700 C 17.971 46.775,17.971 43.625,17.898 41.700 C 17.825 39.775,17.765 41.350,17.765 45.200 M17.767 84.800 C 17.767 89.090,17.826 90.845,17.898 88.700 C 17.970 86.555,17.970 83.045,17.898 80.900 C 17.826 78.755,17.767 80.510,17.767 84.800 M190.870 88.526 C 189.465 90.021,190.257 92.400,192.161 92.400 C 194.209 92.400,195.078 89.863,193.525 88.416 C 192.402 87.370,191.938 87.389,190.870 88.526 M180.986 89.223 C 180.447 90.094,181.186 91.658,182.073 91.526 C 183.111 91.371,183.814 90.334,183.476 89.454 C 183.197 88.727,181.396 88.560,180.986 89.223 M185.643 89.520 C 185.108 90.519,185.949 91.746,187.026 91.538 C 188.198 91.312,188.113 89.045,186.927 88.876 C 186.385 88.799,185.898 89.043,185.643 89.520 M196.554 89.377 C 196.179 90.354,196.571 91.383,197.378 91.539 C 198.435 91.742,199.291 90.517,198.770 89.545 C 198.299 88.663,196.869 88.555,196.554 89.377 M201.188 89.414 C 200.461 90.290,201.163 91.400,202.444 91.400 C 203.240 91.400,203.400 91.199,203.400 90.200 C 203.400 88.795,202.089 88.329,201.188 89.414 " stroke="none" fill="#00ffff" fill-rule="evenodd"></path><path id="path5" d="M2.000 32.273 C -0.124 33.091,0.000 31.047,0.000 65.200 C 0.000 95.185,0.035 96.707,0.731 97.338 C 1.371 97.917,2.718 98.000,11.442 98.000 C 25.155 98.000,24.400 98.733,24.400 85.420 L 24.400 76.400 21.200 76.400 L 18.000 76.400 18.000 84.400 L 18.000 92.400 11.600 92.400 L 5.200 92.400 5.200 65.400 L 5.200 38.400 11.591 38.400 L 17.982 38.400 18.091 45.700 L 18.200 53.000 21.200 53.000 L 24.200 53.000 24.200 43.907 L 24.200 34.814 22.893 33.507 L 21.586 32.200 12.093 32.121 C 6.872 32.078,2.330 32.146,2.000 32.273 M33.200 65.000 L 33.200 98.000 36.200 98.000 L 39.200 98.000 39.200 68.200 L 39.200 38.400 45.600 38.400 L 52.000 38.400 52.000 49.788 L 52.000 61.175 47.100 61.288 C 41.017 61.427,41.174 60.965,44.151 69.930 C 45.370 73.599,47.387 79.840,48.635 83.800 C 49.883 87.760,51.390 92.530,51.984 94.400 L 53.065 97.800 56.532 97.916 C 58.440 97.979,60.000 97.930,60.000 97.807 C 60.000 97.684,57.686 90.675,54.857 82.232 L 49.714 66.882 52.637 66.734 C 58.720 66.427,58.787 66.239,58.794 49.359 C 58.802 30.632,59.973 32.014,44.100 32.006 L 33.200 32.000 33.200 65.000 M69.755 32.392 C 69.291 32.580,68.526 33.223,68.055 33.821 L 67.200 34.908 67.200 65.285 L 67.200 95.662 68.369 96.831 L 69.538 98.000 79.715 98.000 C 93.566 98.000,92.916 98.650,92.720 85.000 L 92.600 76.600 89.400 76.600 L 86.200 76.600 86.092 84.500 L 85.983 92.400 79.792 92.400 L 73.600 92.400 73.600 65.400 L 73.600 38.400 79.791 38.400 L 85.982 38.400 86.091 45.700 L 86.200 53.000 88.583 53.122 C 89.894 53.190,91.379 53.141,91.883 53.015 L 92.800 52.785 92.800 44.580 C 92.800 31.700,93.103 31.992,79.800 32.027 C 74.740 32.040,70.220 32.204,69.755 32.392 M84.278 105.900 C 84.089 106.234,85.036 127.648,85.502 133.600 L 85.800 137.400 87.260 137.522 L 88.720 137.644 88.980 133.322 C 89.302 127.972,89.475 126.788,89.546 129.440 C 89.575 130.561,89.717 132.866,89.860 134.560 L 90.121 137.641 91.560 137.521 L 93.000 137.400 93.294 130.200 C 93.455 126.240,93.834 119.220,94.136 114.600 C 94.747 105.257,94.782 105.600,93.233 105.600 C 91.980 105.600,91.656 107.100,91.554 113.359 C 91.493 117.088,91.306 116.086,90.983 110.300 L 90.721 105.600 89.399 105.600 L 88.077 105.600 87.820 109.900 C 87.464 115.845,87.330 116.672,87.260 113.359 C 87.126 107.019,86.817 105.600,85.567 105.600 C 84.951 105.600,84.371 105.735,84.278 105.900 M104.183 106.101 C 104.077 106.377,104.037 113.532,104.095 122.001 L 104.200 137.400 106.990 137.520 C 110.938 137.691,110.800 138.072,110.800 127.000 C 110.800 116.663,110.686 116.150,108.465 116.476 L 107.200 116.661 107.200 111.131 L 107.200 105.600 105.787 105.600 C 105.011 105.600,104.288 105.825,104.183 106.101 M120.000 111.800 L 120.000 114.400 121.400 114.400 L 122.800 114.400 122.800 111.800 L 122.800 109.200 121.400 109.200 L 120.000 109.200 120.000 111.800 M125.200 113.800 C 125.200 115.267,125.026 116.400,124.800 116.400 C 124.578 116.400,124.400 117.467,124.400 118.800 C 124.400 120.133,124.578 121.200,124.800 121.200 C 125.050 121.200,125.215 123.860,125.240 128.300 C 125.290 137.310,125.314 137.400,127.618 137.400 L 129.400 137.400 129.521 135.300 C 129.618 133.617,129.519 133.200,129.021 133.200 C 128.107 133.200,128.087 121.406,129.000 121.055 C 129.424 120.893,129.600 120.231,129.600 118.800 C 129.600 117.369,129.424 116.707,129.000 116.545 C 128.553 116.373,128.400 115.661,128.400 113.757 L 128.400 111.200 126.800 111.200 L 125.200 111.200 125.200 113.800 M96.390 117.426 C 96.176 117.990,96.000 122.299,96.000 127.000 C 96.000 137.593,96.002 137.600,99.203 137.600 C 102.104 137.600,102.197 137.464,102.199 133.200 L 102.200 130.200 100.924 130.076 C 99.688 129.957,99.644 130.006,99.494 131.676 C 99.370 133.066,99.326 132.915,99.270 130.900 L 99.200 128.400 100.553 128.400 C 102.239 128.400,102.387 127.945,102.395 122.760 C 102.403 117.005,102.094 116.400,99.151 116.400 C 96.974 116.400,96.748 116.484,96.390 117.426 M112.408 117.581 C 111.495 119.784,112.015 125.582,113.300 127.522 C 113.905 128.435,114.400 129.265,114.400 129.365 C 114.400 129.465,113.905 129.604,113.300 129.673 C 112.228 129.797,112.197 129.873,112.084 132.632 C 111.900 137.115,112.259 137.664,115.281 137.519 L 117.767 137.400 118.116 135.800 C 118.847 132.450,118.217 128.167,116.609 125.562 C 115.589 123.910,115.198 122.863,115.314 122.097 C 115.471 121.061,115.483 121.071,115.540 122.276 C 115.611 123.792,116.083 124.166,117.479 123.816 C 118.526 123.553,118.716 119.454,117.790 117.100 C 117.255 115.742,113.013 116.121,112.408 117.581 M120.180 116.907 C 120.073 117.186,120.034 121.911,120.093 127.407 L 120.200 137.400 121.500 137.525 L 122.800 137.651 122.800 127.025 L 122.800 116.400 121.587 116.400 C 120.921 116.400,120.287 116.628,120.180 116.907 M131.190 117.426 C 130.976 117.990,130.800 122.299,130.800 127.000 C 130.800 137.579,130.806 137.600,133.976 137.600 C 136.936 137.600,137.200 137.226,137.200 133.026 L 137.200 130.000 135.800 130.000 C 134.471 130.000,134.400 130.070,134.400 131.376 C 134.400 132.133,134.220 132.864,134.000 133.000 C 133.750 133.154,133.600 132.337,133.600 130.824 L 133.600 128.400 135.157 128.400 C 137.138 128.400,137.200 128.223,137.200 122.541 C 137.200 116.667,137.060 116.400,133.976 116.400 C 131.772 116.400,131.549 116.482,131.190 117.426 M99.487 123.895 C 99.395 124.503,99.317 124.100,99.314 123.000 C 99.311 121.900,99.387 121.403,99.482 121.895 C 99.577 122.386,99.579 123.286,99.487 123.895 M107.994 126.700 C 107.991 129.725,107.813 132.470,107.600 132.800 C 107.340 133.202,107.210 131.386,107.206 127.300 C 107.202 123.496,107.351 121.200,107.600 121.200 C 107.848 121.200,107.998 123.296,107.994 126.700 M134.400 123.000 C 134.400 123.990,134.220 124.800,134.000 124.800 C 133.780 124.800,133.600 123.990,133.600 123.000 C 133.600 122.010,133.780 121.200,134.000 121.200 C 134.220 121.200,134.400 122.010,134.400 123.000 M115.476 132.700 C 115.375 133.085,115.293 132.770,115.293 132.000 C 115.293 131.230,115.375 130.915,115.476 131.300 C 115.576 131.685,115.576 132.315,115.476 132.700 M138.800 134.800 L 138.800 137.600 140.200 137.600 L 141.600 137.600 141.600 134.800 L 141.600 132.000 140.200 132.000 L 138.800 132.000 138.800 134.800 " stroke="none" fill="#199ce9" fill-rule="evenodd"></path></g></svg>